<?xml version="1.0" encoding="utf-8"?>
<!-- Generator: Adobe Illustrator 24.1.1, SVG Export Plug-In . SVG Version: 6.00 Build 0)  -->
<svg version="1.1" id="Layer_1" xmlns="http://www.w3.org/2000/svg" xmlns:xlink="http://www.w3.org/1999/xlink" x="0px" y="0px"
	 viewBox="0 0 512 408" style="enable-background:new 0 0 512 408;" xml:space="preserve">
<style type="text/css">
	.st0{fill:#CDA45E;}
</style>
<path class="st0" d="M196.4,137.1c8.4-22.5,18.6-44.2,32-64.2c6.2-9.2,12.8-18,19.5-26.8c5.8-7.6,8.5-7.6,14.6-0.2
	c21.1,25.2,37.5,53.1,49.6,83.6c0.9,2.3,1.9,4.5,2.9,7.1c10.8-7.9,21-15.9,31.7-23.1c18.4-12.4,38.1-22.5,59-30.1
	c8.4-3.1,11.2-1.3,12.9,7.5c3.7,19,4.7,38.3,4.5,57.5c-0.1,6.7,1,8.9,8.5,7.2c18.8-4.3,37.8-7.1,57.2-6.9
	c10.1,0.1,11.7,1.7,9.9,11.8c-10,57.7-31.3,110.1-75.7,150.3c-32.2,29.1-71.4,43.7-113.4,51.5c-61.7,11.5-121,3.8-177.2-23.8
	c-56.7-27.8-88.8-76.2-108.3-134.3c-5-15-8.5-30.4-11.3-46c-1.2-6.8,0.5-9.8,8.1-9.7c20,0.4,39.7,2.8,59,7.5c6.4,1.6,9,0.6,8.8-6.9
	c-0.6-20,1.2-39.8,4.5-59.5c1.3-7.9,4.2-9.2,11.3-6.4c30.3,11.8,58.3,27.5,83.4,48.2C190.5,133.6,192.4,136.3,196.4,137.1z
	 M99.4,170c3.4,42.4,16.3,79.8,42.9,112.1c23.5,28.5,77.8,66.5,98.1,68.5c0-0.3,0.1-0.7-0.1-0.9c-1-1.6-2.1-3.2-3.2-4.7
	c-24.4-34-42.1-70.9-49.3-112.5c-0.9-5.3,0.5-11.3-4.4-15.9C159.7,194.1,131.7,179.7,99.4,170z M275,348.2c0.5,0.5,1.1,1.1,1.6,1.6
	c8.1-4.3,16.2-8.3,24.2-12.8c61.8-35.1,102.3-85.2,111.4-157.6c0.6-5,1.5-9.4-6.1-6.7c-28.3,9.9-54.3,23.8-76.1,44.8
	c-2.3,2.2-4,4.5-4.4,8c-4.4,36-17.3,69-36,99.8C284.8,333,279.8,340.6,275,348.2z M184.9,207.4c0.9-20.2,2.6-38.3,7.7-56
	c1-3.3,0-6-2.7-8.4c-24.5-21.4-52.2-37.5-82.4-49.5c-3.5-1.4-5.2-0.9-5.7,3.2c-2.5,19.4-4.7,38.8-4,58.5c0.1,3.7,1.3,5.8,4.9,6.9
	C132.6,171.2,159.7,185.6,184.9,207.4z M327.3,203.6c1.7-0.4,2.8-0.4,3.5-0.9c23.3-19.1,49.6-32.5,78.3-41.1
	c4.8-1.4,5.1-4.9,5.3-8.8c0.8-18.1-1.1-36-3.2-53.9c-0.8-6.6-4.2-5.6-8.6-3.7c-29,12.2-55.8,28.1-79.4,49.1c-2,1.8-4.9,3.3-3.9,6.9
	C324.5,168.2,325.6,185.8,327.3,203.6z M253.4,351.8c8.6-61.3,3.6-118.2-30-171.6C199.8,233.5,211.8,299.2,253.4,351.8z
	 M289.9,181.4c-14.5,21.1-23.7,43.6-28.7,67.9c-0.3,1.5,0.2,3.1,0.4,4.7c4.4,25.6,7.2,51.3,3.5,77.3c-0.4,2.5-1.3,5.5,0.9,8
	C301.2,292.6,311.6,229.2,289.9,181.4z M255.9,229.5c7.2-22.4,16.2-41,28.4-57.9c1.8-2.6,0.8-4.7-0.2-7
	c-6.5-14.1-14.5-27.3-23.5-39.9c-2.9-4.1-4.7-3.6-7.6,0.3c-9.3,12.8-17.4,26.3-24.3,40.5c-1.2,2.6-2.9,5.2-0.8,8
	C239.9,189.8,248.4,207.9,255.9,229.5z"/>
</svg>
